#!OML:ASF X:\für Bonn\!DataBase\2005_08_10_Bjorn_Final\c3d\bjorn.ASF
:FULLY-SPECIFIED
:DEGREES
152
root -18.5759 19.5026 -0.0827281 1827.23 -83.5871 -385.545
lowerback -4.54236 7.82811 -4.77054
upperback 7.21646 11.3966 -9.85969
thorax 11.6263 5.44814 -6.50215
lowerneck -5.36222 -12.6606 5.91882
upperneck 3.64571 -18.0736 9.30284
head 2.46796 -8.77073 1.29405
rclavicle -1.78111e-013 1.17681e-013
rhumerus 41.0217 -7.21527 -33.3922
rradius 37.0034
rwrist -28.6969
rhand 4.34677 4.77858
rfingers 7.12502
rthumb 29.7467 -22.8543
lclavicle -1.78111e-013 1.17681e-013
lhumerus -25.1942 7.01657 70.7773
lradius 18.9086
lwrist -26.2948
lhand -19.4451 -5.07207
lfingers 7.12502
lthumb 6.87545 24.7963
rfemur -6.92565 -4.60021 19.4224
rtibia 36.5192
rfoot -13.0204 15.3182
rtoes -17.2306
lfemur -15.5519 6.1291 -16.2445
ltibia 26.6925
lfoot -3.22311 -18.198
ltoes 6.04975
153
root -18.5658 19.5041 -0.0920364 1826.77 -83.5782 -385.076
lowerback -4.64314 7.82533 -4.76232
upperback 7.23337 11.4083 -9.85808
thorax 11.7101 5.45295 -6.49077
lowerneck -5.32254 -12.6715 5.83972
upperneck 3.6433 -18.0861 9.38684
head 2.47773 -8.77715 1.33238
rclavicle 2.06736e-014 -1.59028e-014
rhumerus 41.0799 -8.09927 -34.462
rradius 37.2339
rwrist -28.6427
rhand 3.56247 5.21378
rfingers 7.12502
rthumb 28.9979 -22.5503
lclavicle 2.06736e-014 -1.59028e-014
lhumerus -25.1535 7.12423 70.6801
lradius 18.8102
lwrist -26.4183
lhand -19.4034 -4.85135
lfingers 7.12502
lthumb 6.91578 25.0157
rfemur -6.83541 -4.49545 19.3427
rtibia 36.6805
rfoot -12.8593 15.4197
rtoes -17.913
lfemur -15.5671 6.07838 -16.2643
ltibia 26.619
lfoot -3.13496 -18.2147
ltoes 6.04308
154
root -18.555 19.5046 -0.101904 1826.13 -83.5652 -384.428
lowerback -4.72007 7.82652 -4.76187
upperback 7.22712 11.421 -9.8651
thorax 11.7531 5.45879 -6.48768
lowerneck -5.20624 -12.6891 5.79496
upperneck 3.62807 -18.0978 9.43636
head 2.46243 -8.78676 1.36189
rclavicle -1.52667e-013 7.63333e-014
rhumerus 41.0999 -9.0427 -35.6691
rradius 37.5108
rwrist -28.5334
rhand 2.71897 5.68224
rfingers 7.12502
rthumb 28.192 -22.2176
lclavicle -1.52667e-013 7.63333e-014
lhumerus -25.1634 7.10072 70.5973
lradius 18.7336
lwrist -26.4836
lhand -19.368 -4.68818
lfingers 7.12502
lthumb 6.94995 25.1777
rfemur -6.71036 -4.38275 19.2441
rtibia 36.8166
rfoot -12.6723 15.5356
rtoes -18.5822
lfemur -15.5729 5.97975 -16.2941
ltibia 26.554
lfoot -3.06655 -18.1919
ltoes 6.21268
155
root -18.5412 19.5046 -0.11246 1825.67 -83.5516 -383.986
lowerback -4.79187 7.82492 -4.74831
upperback 7.24539 11.4298 -9.85346
thorax 11.819 5.46257 -6.47176
lowerneck -5.15558 -12.6985 5.75424
upperneck 3.63483 -18.1059 9.46694
head 2.46347 -8.7914 1.37973
rclavicle -2.70347e-014 -9.85972e-014
rhumerus 41.1829 -10.086 -36.9701
rradius 37.8261
rwrist -28.4508
rhand 1.8717 6.14748
rfingers 7.12502
rthumb 27.3819 -21.8832
lclavicle -2.70347e-014 -9.85972e-014
lhumerus -25.1602 6.93001 70.604
lradius 18.7457
lwrist -26.3397
lhand -19.3309 -4.44478
lfingers 7.12502
lthumb 6.9857 25.4199
rfemur -6.57952 -4.23136 19.1784
rtibia 36.9318
rfoot -12.4672 15.6483
rtoes -18.9528
lfemur -15.5832 5.90754 -16.2989
ltibia 26.5002
lfoot -2.97545 -18.2124
ltoes 6.23874
156
root -18.5273 19.5037 -0.122831 1824.9 -83.5082 -383.209
lowerback -4.8665 7.81157 -4.75199
upperback 7.25235 11.4236 -9.84664
thorax 11.8694 5.4581 -6.45412
lowerneck -5.07683 -12.7119 5.65585
upperneck 3.64994 -18.1183 9.54771
head 2.47394 -8.79805 1.42204
rclavicle -5.08889e-014 -4.77083e-014
rhumerus 41.2858 -11.2038 -38.396
rradius 38.2374
rwrist -28.6154
rhand 1.19667 6.49805
rfingers 7.12502
rthumb 26.7361 -21.6329
lclavicle -5.08889e-014 -4.77083e-014
lhumerus -25.1956 6.64989 70.6396
lradius 18.8005
lwrist -26.1006
lhand -19.2667 -4.25775
lfingers 7.12502
lthumb 7.04771 25.6049
rfemur -6.43601 -4.12823 19.0812
rtibia 37.0314
rfoot -12.2374 15.8315
rtoes -19.3109
lfemur -15.6117 5.7538 -16.3305
ltibia 26.4534
lfoot -2.92382 -18.1968
ltoes 6.21093
157
root -18.5115 19.5029 -0.13368 1824.04 -83.4452 -382.346
lowerback -4.94183 7.78628 -4.76604
upperback 7.26739 11.4024 -9.82363
thorax 11.9216 5.44444 -6.41502
lowerneck -4.98117 -12.7226 5.54634
upperneck 3.63779 -18.1187 9.60003
head 2.4697 -8.80138 1.46013
rclavicle 3.81667e-014 9.54166e-015
rhumerus 41.4261 -12.3412 -39.8482
rradius 38.6688
rwrist -28.7681
rhand 0.536841 6.94799
rfingers 7.12502
rthumb 26.1045 -21.2779
lclavicle 3.81667e-014 9.54166e-015
lhumerus -25.2666 6.28974 70.7395
lradius 18.918
lwrist -25.8015
lhand -19.2652 -4.06606
lfingers 7.12502
lthumb 7.04919 25.7966
rfemur -6.28952 -3.99766 18.9899
rtibia 37.1233
rfoot -12.0083 16.0109
rtoes -19.685
lfemur -15.6566 5.66607 -16.3672
ltibia 26.4147
lfoot -2.83413 -18.2729
ltoes 6.139
158
root -18.4953 19.5026 -0.145739 1823.24 -83.3922 -381.541
lowerback -5.03159 7.76125 -4.78317
upperback 7.27014 11.3829 -9.81161
thorax 11.9707 5.43185 -6.38478
lowerneck -4.88992 -12.7391 5.44997
upperneck 3.65883 -18.1323 9.6512
head 2.47648 -8.80919 1.49405
rclavicle -1.59028e-014 -3.81667e-014
rhumerus 41.5422 -13.4555 -41.326
rradius 39.2353
rwrist -29.1682
rhand -0.0825755 7.3895
rfingers 7.12502
rthumb 25.5113 -20.9226
lclavicle -1.59028e-014 -3.81667e-014
lhumerus -25.3218 6.01051 70.7975
lradius 19.0014
lwrist -25.54
lhand -19.2215 -3.9665
lfingers 7.12502
lthumb 7.09137 25.8947
rfemur -6.15303 -3.87291 18.9009
rtibia 37.2005
rfoot -11.7568 16.2138
rtoes -20.1076
lfemur -15.7145 5.53202 -16.3993
ltibia 26.3817
lfoot -2.78882 -18.297
ltoes 6.01245
159
root -18.4775 19.4996 -0.157254 1822.23 -83.3252 -380.517
lowerback -5.12828 7.73237 -4.81247
upperback 7.29015 11.3615 -9.79123
thorax 12.0395 5.41633 -6.33812
lowerneck -4.82601 -12.7474 5.35035
upperneck 3.68209 -18.1362 9.68991
head 2.48745 -8.81133 1.52302
rclavicle -2.70347e-014 -6.99722e-014
rhumerus 41.6312 -14.5792 -42.7791
rradius 40.0094
rwrist -29.6648
rhand -0.656154 7.70846
rfingers 7.12502
rthumb 24.9617 -20.6811
lclavicle -2.70347e-014 -6.99722e-014
lhumerus -25.3605 5.68714 70.9035
lradius 19.0975
lwrist -25.3453
lhand -19.2631 -3.94975
lfingers 7.12502
lthumb 7.05117 25.9128
rfemur -5.99575 -3.79565 18.7751
rtibia 37.2653
rfoot -11.4902 16.4848
rtoes -20.4363
lfemur -15.778 5.38061 -16.4573
ltibia 26.3552
lfoot -2.73803 -18.3356
ltoes 5.86946
160
root -18.4598 19.498 -0.16898 1821.45 -83.2671 -379.731
lowerback -5.22648 7.69646 -4.81973
upperback 7.29996 11.3277 -9.7624
thorax 12.0981 5.39677 -6.2957
lowerneck -4.70767 -12.7485 5.23776
upperneck 3.67219 -18.1207 9.72622
head 2.47809 -8.8076 1.55909
rclavicle -8.26944e-014 4.77083e-014
rhumerus 41.7304 -15.6486 -44.2633
rradius 40.9607
rwrist -30.3526
rhand -1.18483 7.94049
rfingers 7.12502
rthumb 24.455 -20.5185
lclavicle -8.26944e-014 4.77083e-014
lhumerus -25.4577 5.34762 71.0253
lradius 19.2423
lwrist -25.0358
lhand -19.3094 -3.93995
lfingers 7.12502
lthumb 7.00646 25.9241
rfemur -5.81015 -3.66095 18.6774
rtibia 37.3094
rfoot -11.2109 16.7728
rtoes -20.5672
lfemur -15.8385 5.25934 -16.4922
ltibia 26.3375
lfoot -2.69281 -18.3758
ltoes 5.76405
161
root -18.4409 19.4952 -0.182014 1820.26 -83.1844 -378.54
lowerback -5.31732 7.66384 -4.86654
upperback 7.31178 11.3016 -9.75059
thorax 12.1521 5.37792 -6.25101
lowerneck -4.59701 -12.7621 5.15481
upperneck 3.69038 -18.1272 9.75242
head 2.47617 -8.81296 1.58559
rclavicle 3.81667e-014 -9.54166e-014
rhumerus 41.7833 -16.7198 -45.792
rradius 42.0364
rwrist -30.9942
rhand -1.82511 8.04485
rfingers 7.12502
rthumb 23.8411 -20.4956
lclavicle 3.81667e-014 -9.54166e-014
lhumerus -25.5255 4.93638 71.1466
lradius 19.3845
lwrist -24.742
lhand -19.3405 -4.0242
lfingers 7.12502
lthumb 6.97647 25.8408
rfemur -5.602 -3.53193 18.5443
rtibia 37.3375
rfoot -10.9401 17.088
rtoes -20.6181
lfemur -15.9078 5.0918 -16.5624
ltibia 26.3216
lfoot -2.605 -18.4232
ltoes 5.70126
162
root -18.4216 19.4922 -0.196598 1819.31 -83.1029 -377.594
lowerback -5.39607 7.63651 -4.89314
upperback 7.32215 11.279 -9.73363
thorax 12.2002 5.36267 -6.21219
lowerneck -4.49625 -12.7682 5.06318
upperneck 3.72642 -18.129 9.80756
head 2.48616 -8.81427 1.62087
rclavicle -7.95139e-014 1.145e-013
rhumerus 41.8837 -17.7883 -47.4087
rradius 43.1842
rwrist -31.6258
rhand -2.64373 7.96096
rfingers 7.12502
rthumb 23.0558 -20.6798
lclavicle -7.95139e-014 1.145e-013
lhumerus -25.5614 4.64153 71.2563
lradius 19.4905
lwrist -24.5851
lhand -19.4336 -4.13735
lfingers 7.12502
lthumb 6.88657 25.7306
rfemur -5.37244 -3.39218 18.4366
rtibia 37.3388
rfoot -10.6403 17.4485
rtoes -20.6895
lfemur -15.9701 4.96511 -16.6081
ltibia 26.3101
lfoot -2.59236 -18.5089
ltoes 5.31053
163
root -18.4023 19.4891 -0.212463 1818.37 -83.0071 -376.676
lowerback -5.48972 7.58462 -4.95891
upperback 7.33761 11.2267 -9.67243
thorax 12.2404 5.32677 -6.10573
lowerneck -4.37741 -12.7615 4.91151
upperneck 3.78156 -18.1055 9.81593
head 2.49913 -8.80332 1.65209
rclavicle -1.90833e-014 1.27222e-014
rhumerus 42.0928 -18.7896 -49.1084
rradius 44.3699
rwrist -32.2524
rhand -3.63422 7.85037
rfingers 7.12502
rthumb 22.1052 -20.906
lclavicle -1.90833e-014 1.27222e-014
lhumerus -25.5935 4.44925 71.4358
lradius 19.585
lwrist -24.4488
lhand -19.4607 -4.14823
lfingers 7.12502
lthumb 6.86041 25.7206
rfemur -5.12593 -3.23603 18.3399
rtibia 37.3233
rfoot -10.3296 17.8243
rtoes -20.5437
lfemur -16.0128 4.77465 -16.6361
ltibia 26.2965
lfoot -2.50952 -18.5406
ltoes 5.37289
164
root -18.383 19.4867 -0.2296 1817.68 -82.911 -375.993
lowerback -5.57448 7.54698 -4.97926
upperback 7.3222 11.1873 -9.63982
thorax 12.2572 5.30389 -6.05484
lowerneck -4.18733 -12.7573 4.85
upperneck 3.79071 -18.0797 9.81656
head 2.47421 -8.79593 1.67544
rclavicle -8.26944e-014 0
rhumerus 42.2518 -19.7514 -50.8836
rradius 45.6353
rwrist -32.8182
rhand -4.7666 7.79069
rfingers 7.12502
rthumb 21.0176 -21.0904
lclavicle -8.26944e-014 0
lhumerus -25.6382 4.21883 71.5687
lradius 19.6906
lwrist -24.2944
lhand -19.5121 -4.19133
lfingers 7.12502
lthumb 6.81085 25.6791
rfemur -4.87597 -3.04597 18.2775
rtibia 37.2791
rfoot -10.0286 18.2375
rtoes -20.6143
lfemur -16.0773 4.65038 -16.6386
ltibia 26.2865
lfoot -2.41991 -18.6543
ltoes 5.24884
165
root -18.362 19.4829 -0.247281 1816.93 -82.7832 -375.247
lowerback -5.67638 7.49067 -5.02053
upperback 7.31555 11.1268 -9.58727
thorax 12.2833 5.26742 -5.97198
lowerneck -4.01936 -12.7383 4.73663
upperneck 3.82162 -18.0372 9.83588
head 2.46726 -8.77822 1.70997
rclavicle -1.27222e-014 1.20861e-013
rhumerus 42.49 -20.648 -52.6969
rradius 46.9257
rwrist -33.433
rhand -5.90927 7.78449
rfingers 7.12502
rthumb 19.9196 -21.2146
lclavicle -1.27222e-014 1.20861e-013
lhumerus -25.6987 3.98713 71.7479
lradius 19.8249
lwrist -24.1608
lhand -19.6255 -4.18654
lfingers 7.12502
lthumb 6.70134 25.6874
rfemur -4.62115 -2.84647 18.2185
rtibia 37.2162
rfoot -9.6889 18.671
rtoes -20.3627
lfemur -16.1518 4.4623 -16.6402
ltibia 26.2699
lfoot -2.33924 -18.7079
ltoes 5.19282
166
root -18.3408 19.48 -0.265627 1816.32 -82.6485 -374.673
lowerback -5.75336 7.43343 -5.02982
upperback 7.31842 11.0593 -9.52447
thorax 12.3087 5.23047 -5.89884
lowerneck -3.86641 -12.7159 4.61856
upperneck 3.86069 -17.9894 9.82559
head 2.4625 -8.7574 1.73503
rclavicle 7.4743e-014 -1.30403e-013
rhumerus 42.7658 -21.4862 -54.5519
rradius 48.2419
rwrist -33.9943
rhand -7.20157 7.74377
rfingers 7.12502
rthumb 18.677 -21.3796
lclavicle 7.4743e-014 -1.30403e-013
lhumerus -25.7587 3.76791 71.9332
lradius 19.9657
lwrist -24.0039
lhand -19.6648 -4.16669
lfingers 7.12502
lthumb 6.66345 25.7085
rfemur -4.3201 -2.62735 18.1847
rtibia 37.1239
rfoot -9.40322 19.1366
rtoes -20.4617
lfemur -16.2019 4.29563 -16.6165
ltibia 26.2611
lfoot -2.25721 -18.7974
ltoes 4.99488
